<?xml version="1.0" encoding="utf-8"?>
<svg
	version="1.1"
	xmlns="http://www.w3.org/2000/svg"
	xmlns:xlink="http://www.w3.org/1999/xlink"
	x="0%" y="0%"
	width="100%" height="100%"
	viewBox="0 0 24.0 24.0"
	enable-background="new 0 0 24.0 24.0"
	xml:space="preserve">
	<path
		fill="#333333"
		stroke="#004E4F"
		fill-opacity="0.435"
		stroke-opacity="1.000"
		fill-rule="nonzero"
		stroke-width="0.24"
		stroke-linejoin="miter"
		stroke-linecap="square"
		d="M8.52,5.69L16.04,5.69A2.50 2.50 0 0 1 18.54,8.19L18.54,16.47A2.50 2.50 0 0 1 16.04,18.97L8.52,18.97A2.50 2.50 0 0 1 6.02,16.47L6.02,8.19A2.50 2.50 0 0 1 8.52,5.69z"/>
	<path
		fill="#1C64F2"
		stroke="#004243"
		fill-opacity="1.000"
		stroke-opacity="0.898"
		fill-rule="nonzero"
		stroke-width="0.24"
		stroke-linejoin="round"
		stroke-linecap="square"
		d="M8.97,7.47L15.62,7.47L15.65,11.03L13.06,12.40L8.90,7.37"/>
	<path
		fill="#009095"
		stroke="#004243"
		fill-opacity="1.000"
		stroke-opacity="0.898"
		fill-rule="nonzero"
		stroke-width="0.24"
		stroke-linejoin="round"
		stroke-linecap="round"
		d="M16.42,16.19L12.07,11.16L9.36,13.46L9.36,16.19L16.55,16.17"/>
</svg>